<?xml version="1.0" encoding="utf-8"?>
<!-- Generator: Adobe Illustrator 26.2.1, SVG Export Plug-In . SVG Version: 6.00 Build 0)  -->
<svg version="1.1" id="Laag_1" xmlns="http://www.w3.org/2000/svg" xmlns:xlink="http://www.w3.org/1999/xlink" x="0px" y="0px"
	 viewBox="0 0 770.7 434.1" style="enable-background:new 0 0 770.7 434.1;" xml:space="preserve">
<style type="text/css">
	.st0{fill:#0F1E2F;}
	.st1{fill:#2F7263;}
</style>
<g>
	<path class="st0" d="M354.8,106.5V96.3h40.7v10.2H354.8z M395.5,154.7c-3.9,0.7-7.6,1-11.3,0.9s-7-0.8-9.9-2.1
		c-2.9-1.3-5.1-3.3-6.6-6.1c-1.3-2.5-2-5.1-2.1-7.7c-0.1-2.6-0.1-5.6-0.1-8.9V80h13v50c0,2.3,0,4.4,0.1,6.2c0.1,1.8,0.4,3.2,1.1,4.3
		c1.3,2.2,3.4,3.4,6.2,3.6c2.9,0.3,6.1,0.1,9.7-0.4V154.7z"/>
	<path class="st0" d="M408,154.7V76.8h11.6v41h1.6v36.9H408z M448.5,154.7v-28.1c0-1.8-0.1-3.9-0.4-6.1c-0.3-2.2-0.8-4.4-1.8-6.5
		c-0.9-2.1-2.3-3.8-4.1-5.1c-1.8-1.3-4.3-2-7.4-2c-1.7,0-3.3,0.3-4.9,0.8c-1.6,0.5-3.1,1.5-4.4,2.8c-1.3,1.3-2.4,3.1-3.2,5.4
		c-0.8,2.3-1.2,5.2-1.2,8.8l-7.7-3.3c0-5,1-9.5,2.9-13.5c1.9-4,4.8-7.3,8.5-9.7c3.7-2.4,8.4-3.6,13.8-3.6c4.3,0,7.9,0.7,10.7,2.2
		c2.8,1.4,5,3.3,6.7,5.5c1.7,2.2,2.9,4.6,3.7,7.1c0.8,2.5,1.3,4.9,1.5,7.2c0.2,2.2,0.3,4.1,0.3,5.5v32.6H448.5z"/>
	<path class="st0" d="M502.3,156.3c-5.9,0-11.1-1.3-15.6-3.8c-4.5-2.6-8-6.1-10.5-10.7c-2.5-4.5-3.8-9.8-3.8-15.7
		c0-6.4,1.2-11.9,3.7-16.6c2.5-4.7,5.9-8.4,10.2-10.9c4.4-2.6,9.4-3.9,15.1-3.9c6.1,0,11.2,1.4,15.4,4.2c4.2,2.8,7.4,6.8,9.4,12
		c2.1,5.2,2.8,11.2,2.3,18.2h-12.9v-4.8c0-6.3-1.2-11-3.3-13.9c-2.2-2.9-5.7-4.4-10.4-4.4c-5.3,0-9.3,1.6-11.9,4.9
		c-2.6,3.3-3.9,8.1-3.9,14.5c0,5.9,1.3,10.5,3.9,13.7c2.6,3.2,6.4,4.9,11.4,4.9c3.2,0,6-0.7,8.3-2.1c2.3-1.4,4.1-3.5,5.4-6.2
		l12.9,3.9c-2.2,5.3-5.7,9.4-10.4,12.3C513,154.8,507.9,156.3,502.3,156.3z M482.2,129.1v-9.8h40.2v9.8H482.2z"/>
</g>
<g>
	<path class="st0" d="M383.4,258.6c-6,0-11.2-1.3-15.4-4c-4.3-2.7-7.5-6.4-9.8-11c-2.2-4.6-3.4-9.9-3.4-15.8c0-6,1.2-11.3,3.5-15.9
		c2.3-4.6,5.6-8.3,9.9-10.9c4.3-2.7,9.4-4,15.3-4c6.6,0,12.2,1.7,16.8,5c4.6,3.3,7.6,7.9,9,13.7l-13,3.5c-1-3.1-2.7-5.6-5-7.3
		c-2.3-1.7-5-2.6-8-2.6c-3.4,0-6.2,0.8-8.4,2.4c-2.2,1.6-3.8,3.8-4.9,6.6c-1,2.8-1.6,6-1.6,9.6c0,5.6,1.2,10,3.7,13.5
		c2.5,3.4,6.2,5.1,11.1,5.1c3.5,0,6.2-0.8,8.2-2.4c2-1.6,3.5-3.9,4.5-6.9l13.3,3c-1.8,5.9-5,10.5-9.5,13.7
		C395.4,257,389.9,258.6,383.4,258.6z"/>
	<path class="st0" d="M444.4,258.6c-5.8,0-10.9-1.3-15.3-3.9c-4.4-2.6-7.7-6.3-10.1-10.9c-2.4-4.6-3.6-10-3.6-16
		c0-6.1,1.2-11.5,3.7-16.1c2.5-4.6,5.9-8.2,10.2-10.8c4.4-2.6,9.4-3.9,15.1-3.9c5.9,0,11,1.3,15.4,3.9c4.4,2.6,7.8,6.3,10.2,10.9
		c2.4,4.6,3.6,10,3.6,16c0,6.1-1.2,11.4-3.6,16c-2.4,4.6-5.8,8.3-10.2,10.9C455.4,257.3,450.3,258.6,444.4,258.6z M444.4,246.4
		c5.2,0,9.1-1.7,11.6-5.2c2.5-3.5,3.8-7.9,3.8-13.4c0-5.7-1.3-10.2-3.8-13.5s-6.4-5.1-11.5-5.1c-3.5,0-6.4,0.8-8.6,2.3
		c-2.3,1.6-3.9,3.7-5,6.5c-1.1,2.8-1.6,6-1.6,9.7c0,5.7,1.3,10.2,3.9,13.5C435.6,244.7,439.4,246.4,444.4,246.4z"/>
	<path class="st0" d="M485.5,257v-58.4H497v14.2l-1.4-1.8c0.7-1.9,1.7-3.7,2.9-5.3c1.2-1.6,2.7-2.9,4.4-4c1.4-1,3-1.7,4.8-2.3
		c1.7-0.6,3.5-0.9,5.4-1c1.8-0.1,3.6,0,5.4,0.2v12.2c-1.7-0.5-3.7-0.7-6-0.5c-2.3,0.2-4.3,0.8-6.1,1.9c-1.8,1-3.3,2.2-4.4,3.7
		c-1.1,1.5-2,3.2-2.5,5.2c-0.5,1.9-0.8,4-0.8,6.2V257H485.5z"/>
	<path class="st0" d="M528.5,257v-58.4h11.6v18.1h1.6V257H528.5z M569,257v-28.1c0-1.8-0.1-3.9-0.4-6.1s-0.8-4.4-1.8-6.5
		c-0.9-2.1-2.3-3.8-4.1-5.1c-1.8-1.3-4.3-2-7.4-2c-1.7,0-3.3,0.3-4.9,0.8c-1.6,0.5-3.1,1.5-4.4,2.8c-1.3,1.3-2.4,3.1-3.2,5.4
		c-0.8,2.3-1.2,5.2-1.2,8.8l-7.7-3.3c0-5,1-9.5,2.9-13.5c1.9-4,4.8-7.3,8.5-9.7c3.7-2.4,8.4-3.6,13.8-3.6c4.3,0,7.9,0.7,10.7,2.2
		c2.8,1.4,5,3.3,6.7,5.5c1.7,2.2,2.9,4.6,3.7,7.1c0.8,2.5,1.3,4.9,1.5,7.2c0.2,2.2,0.3,4.1,0.3,5.5V257H569z"/>
	<path class="st0" d="M621.9,258.6c-5.9,0-11.1-1.3-15.6-3.8c-4.5-2.6-8-6.1-10.5-10.7c-2.5-4.5-3.8-9.8-3.8-15.7
		c0-6.4,1.2-11.9,3.7-16.6c2.5-4.7,5.9-8.4,10.2-10.9c4.4-2.6,9.4-3.9,15.1-3.9c6.1,0,11.2,1.4,15.4,4.2c4.2,2.8,7.4,6.8,9.4,12
		c2.1,5.2,2.8,11.2,2.3,18.2h-12.9v-4.8c0-6.3-1.2-11-3.3-13.9c-2.2-2.9-5.7-4.4-10.4-4.4c-5.3,0-9.3,1.6-11.9,4.9
		c-2.6,3.3-3.9,8.1-3.9,14.5c0,5.9,1.3,10.5,3.9,13.7c2.6,3.2,6.4,4.9,11.4,4.9c3.2,0,6-0.7,8.3-2.1c2.3-1.4,4.1-3.5,5.4-6.2
		l12.9,3.9c-2.2,5.3-5.7,9.4-10.4,12.3C632.7,257.1,627.5,258.6,621.9,258.6z M601.8,231.4v-9.8h40.2v9.8H601.8z"/>
	<path class="st0" d="M660.4,257v-58.4H672v14.2l-1.4-1.8c0.7-1.9,1.7-3.7,2.9-5.3c1.2-1.6,2.7-2.9,4.4-4c1.4-1,3-1.7,4.8-2.3
		c1.7-0.6,3.5-0.9,5.4-1c1.8-0.1,3.6,0,5.4,0.2v12.2c-1.7-0.5-3.7-0.7-6-0.5c-2.3,0.2-4.3,0.8-6.1,1.9c-1.8,1-3.3,2.2-4.4,3.7
		c-1.1,1.5-2,3.2-2.5,5.2c-0.5,1.9-0.8,4-0.8,6.2V257H660.4z"/>
</g>
<g>
	<path class="st0" d="M380.6,358.8c-7.2,0-13.1-1.6-17.6-4.9c-4.5-3.2-7.2-7.8-8.2-13.7l13.3-2.1c0.7,2.9,2.2,5.2,4.5,6.8
		c2.3,1.7,5.3,2.5,8.9,2.5c3.1,0,5.6-0.6,7.3-1.9c1.7-1.2,2.6-3,2.6-5.1c0-1.3-0.3-2.4-0.9-3.2c-0.6-0.8-2-1.6-4.1-2.4
		c-2.1-0.8-5.4-1.7-9.8-2.9c-4.9-1.3-8.8-2.7-11.7-4.2c-2.9-1.5-5-3.3-6.2-5.3c-1.3-2.1-1.9-4.5-1.9-7.5c0-3.6,1-6.8,2.9-9.5
		s4.6-4.8,8-6.2c3.4-1.5,7.5-2.2,12.1-2.2c4.5,0,8.6,0.7,12.1,2.1c3.5,1.4,6.4,3.4,8.5,6c2.2,2.6,3.5,5.6,4,9.1l-13.3,2.4
		c-0.3-2.5-1.5-4.5-3.4-5.9c-1.9-1.4-4.5-2.2-7.7-2.4c-3.1-0.2-5.5,0.3-7.4,1.4c-1.9,1.1-2.8,2.6-2.8,4.6c0,1.1,0.4,2.1,1.1,2.9
		c0.8,0.8,2.3,1.6,4.6,2.4c2.3,0.8,5.7,1.8,10.2,2.9c4.7,1.2,8.4,2.6,11.2,4.1c2.8,1.5,4.8,3.4,6.1,5.5c1.2,2.1,1.9,4.7,1.9,7.7
		c0,5.9-2.1,10.5-6.4,13.8S388.1,358.8,380.6,358.8z"/>
	<path class="st0" d="M410.1,309v-10.2h40.7V309H410.1z M450.8,357.2c-3.9,0.7-7.6,1-11.3,0.9c-3.7-0.1-7-0.8-9.9-2.1
		c-2.9-1.3-5.1-3.3-6.6-6.1c-1.3-2.5-2-5.1-2.1-7.7c-0.1-2.6-0.1-5.6-0.1-8.9v-50.8h13v50c0,2.3,0,4.4,0.1,6.2s0.4,3.2,1.1,4.3
		c1.3,2.2,3.4,3.4,6.2,3.6c2.9,0.3,6.1,0.1,9.7-0.4V357.2z"/>
	<path class="st0" d="M486.2,358.8c-5.8,0-10.9-1.3-15.3-3.9c-4.4-2.6-7.7-6.3-10.1-10.9c-2.4-4.6-3.6-10-3.6-16
		c0-6.1,1.2-11.5,3.7-16.1c2.5-4.6,5.9-8.2,10.2-10.8c4.4-2.6,9.4-3.9,15.1-3.9c5.9,0,11,1.3,15.4,3.9c4.4,2.6,7.8,6.3,10.2,10.9
		c2.4,4.6,3.6,10,3.6,16c0,6.1-1.2,11.4-3.6,16c-2.4,4.6-5.8,8.3-10.2,10.9C497.2,357.5,492.1,358.8,486.2,358.8z M486.2,346.6
		c5.2,0,9.1-1.7,11.6-5.2c2.5-3.5,3.8-7.9,3.8-13.4c0-5.7-1.3-10.2-3.8-13.5c-2.6-3.4-6.4-5.1-11.5-5.1c-3.5,0-6.4,0.8-8.6,2.3
		c-2.3,1.6-3.9,3.7-5,6.5c-1.1,2.8-1.6,6-1.6,9.7c0,5.7,1.3,10.2,3.9,13.5C477.4,344.9,481.2,346.6,486.2,346.6z"/>
	<path class="st0" d="M527.2,357.2v-58.4h11.6v18.1h1.6v40.3H527.2z M567.7,357.2v-28.1c0-1.8-0.1-3.9-0.4-6.1
		c-0.3-2.2-0.8-4.4-1.8-6.5c-0.9-2.1-2.3-3.8-4.1-5.1c-1.8-1.3-4.3-2-7.4-2c-1.7,0-3.3,0.3-4.9,0.8c-1.6,0.5-3.1,1.5-4.4,2.8
		c-1.3,1.3-2.4,3.1-3.2,5.4c-0.8,2.3-1.2,5.2-1.2,8.8l-7.7-3.3c0-5,1-9.5,2.9-13.5c1.9-4,4.8-7.3,8.5-9.7s8.4-3.6,13.8-3.6
		c4.3,0,7.9,0.7,10.7,2.2c2.8,1.4,5,3.3,6.7,5.5c1.7,2.2,2.9,4.6,3.7,7.1c0.8,2.5,1.3,4.9,1.5,7.2c0.2,2.2,0.3,4.1,0.3,5.5v32.6
		H567.7z"/>
	<path class="st0" d="M620.5,358.8c-5.9,0-11.1-1.3-15.6-3.8c-4.5-2.6-8-6.1-10.5-10.7c-2.5-4.5-3.8-9.8-3.8-15.7
		c0-6.4,1.2-11.9,3.7-16.6c2.5-4.7,5.9-8.4,10.2-10.9c4.4-2.6,9.4-3.9,15.1-3.9c6.1,0,11.2,1.4,15.4,4.2c4.2,2.8,7.4,6.8,9.4,12
		c2.1,5.2,2.8,11.2,2.3,18.2h-12.9v-4.8c0-6.3-1.2-11-3.3-13.9c-2.2-2.9-5.7-4.4-10.4-4.4c-5.3,0-9.3,1.6-11.9,4.9
		c-2.6,3.3-3.9,8.1-3.9,14.5c0,5.9,1.3,10.5,3.9,13.7c2.6,3.2,6.4,4.9,11.4,4.9c3.2,0,6-0.7,8.3-2.1c2.3-1.4,4.1-3.5,5.4-6.2
		l12.9,3.9c-2.2,5.3-5.7,9.4-10.4,12.3C631.3,357.3,626.2,358.8,620.5,358.8z M600.4,331.6v-9.8h40.2v9.8H600.4z"/>
</g>
<path class="st1" d="M318.3,197.9c-55.1,0-99.7-44.6-99.7-99.7c0-0.3,0-0.6,0-0.9h-37.3c0,0.3,0,0.6,0,0.9c0,75.7,61.3,137,137,137
	l0,0V197.9L318.3,197.9z"/>
<polygon class="st0" points="75.6,238 177.6,238 177.6,340 216.3,340 216.3,238 216.3,238 216.3,199.3 216.3,199.3 177.6,199.3 
	75.6,199.3 "/>
</svg>
